<mxfile host="app.diagrams.net" agent="Mozilla/5.0 (Macintosh; Intel Mac OS X 10_15_7) AppleWebKit/537.36 (KHTML, like Gecko) Chrome/134.0.0.0 Safari/537.36 Edg/134.0.0.0" version="26.0.16">
  <diagram name="Page-1" id="DYw3icbClSaxP4PzQXzK">
    <mxGraphModel dx="938" dy="880" grid="1" gridSize="10" guides="1" tooltips="1" connect="1" arrows="1" fold="1" page="1" pageScale="1" pageWidth="709" pageHeight="236" math="0" shadow="0">
      <root>
        <mxCell id="0" />
        <mxCell id="1" parent="0" />
        <mxCell id="gdm9CZV6I5VWxYnbLnco-8" value="" style="rounded=0;whiteSpace=wrap;html=1;" vertex="1" parent="1">
          <mxGeometry x="340" y="69" width="160" height="60" as="geometry" />
        </mxCell>
        <mxCell id="gdm9CZV6I5VWxYnbLnco-3" style="edgeStyle=orthogonalEdgeStyle;rounded=0;orthogonalLoop=1;jettySize=auto;html=1;endArrow=block;endFill=1;" edge="1" parent="1" source="gdm9CZV6I5VWxYnbLnco-1" target="gdm9CZV6I5VWxYnbLnco-2">
          <mxGeometry relative="1" as="geometry" />
        </mxCell>
        <mxCell id="gdm9CZV6I5VWxYnbLnco-1" value="Rat DDT&amp;nbsp;&lt;div&gt;normative model&lt;/div&gt;" style="rounded=1;whiteSpace=wrap;html=1;" vertex="1" parent="1">
          <mxGeometry x="200" y="40" width="100" height="40" as="geometry" />
        </mxCell>
        <mxCell id="gdm9CZV6I5VWxYnbLnco-2" value="SA" style="rounded=1;whiteSpace=wrap;html=1;" vertex="1" parent="1">
          <mxGeometry x="200" y="118" width="100" height="40" as="geometry" />
        </mxCell>
        <mxCell id="gdm9CZV6I5VWxYnbLnco-5" value="Trajectory" style="text;html=1;align=center;verticalAlign=middle;resizable=0;points=[];autosize=1;strokeColor=none;fillColor=none;" vertex="1" parent="1">
          <mxGeometry x="340" y="84" width="80" height="30" as="geometry" />
        </mxCell>
        <mxCell id="gdm9CZV6I5VWxYnbLnco-6" value="Subgroup" style="text;html=1;align=center;verticalAlign=middle;resizable=0;points=[];autosize=1;strokeColor=none;fillColor=none;" vertex="1" parent="1">
          <mxGeometry x="410" y="69" width="80" height="30" as="geometry" />
        </mxCell>
        <mxCell id="gdm9CZV6I5VWxYnbLnco-7" value="Outliers" style="text;html=1;align=center;verticalAlign=middle;resizable=0;points=[];autosize=1;strokeColor=none;fillColor=none;" vertex="1" parent="1">
          <mxGeometry x="420" y="99" width="60" height="30" as="geometry" />
        </mxCell>
        <mxCell id="gdm9CZV6I5VWxYnbLnco-9" value="more better index for animal impassivity" style="text;html=1;align=center;verticalAlign=middle;resizable=0;points=[];autosize=1;strokeColor=none;fillColor=none;" vertex="1" parent="1">
          <mxGeometry width="230" height="30" as="geometry" />
        </mxCell>
        <mxCell id="gdm9CZV6I5VWxYnbLnco-14" value="&lt;div&gt;&lt;span style=&quot;font-size: 18px;&quot;&gt;1. Initial preference&lt;/span&gt;&lt;/div&gt;&lt;div&gt;&lt;span style=&quot;font-size: 18px;&quot;&gt;2. Reaction time&lt;/span&gt;&lt;/div&gt;&lt;div&gt;&lt;span style=&quot;font-size: 18px;&quot;&gt;3. Interaction&lt;/span&gt;&lt;/div&gt;" style="text;html=1;align=left;verticalAlign=middle;resizable=0;points=[];autosize=1;strokeColor=none;fillColor=none;" vertex="1" parent="1">
          <mxGeometry x="10" y="40" width="180" height="80" as="geometry" />
        </mxCell>
        <mxCell id="gdm9CZV6I5VWxYnbLnco-16" value="1. Number of subjects&#xa;2. Age range&#xa;3. SA status" style="text;whiteSpace=wrap;" vertex="1" parent="1">
          <mxGeometry x="340" y="166" width="150" height="70" as="geometry" />
        </mxCell>
        <mxCell id="gdm9CZV6I5VWxYnbLnco-17" value="Choice&amp;nbsp;" style="text;html=1;align=left;verticalAlign=middle;resizable=0;points=[];autosize=1;strokeColor=none;fillColor=none;" vertex="1" parent="1">
          <mxGeometry x="40" y="270" width="60" height="30" as="geometry" />
        </mxCell>
        <mxCell id="gdm9CZV6I5VWxYnbLnco-18" value="Response Time" style="text;html=1;align=left;verticalAlign=middle;resizable=0;points=[];autosize=1;strokeColor=none;fillColor=none;" vertex="1" parent="1">
          <mxGeometry x="40" y="354" width="110" height="30" as="geometry" />
        </mxCell>
        <mxCell id="gdm9CZV6I5VWxYnbLnco-19" value="关于时间参数的反应函数" style="text;html=1;align=left;verticalAlign=middle;resizable=0;points=[];autosize=1;strokeColor=none;fillColor=none;" vertex="1" parent="1">
          <mxGeometry x="40" y="240" width="160" height="30" as="geometry" />
        </mxCell>
        <mxCell id="gdm9CZV6I5VWxYnbLnco-20" value="关于时间参数的反应函数" style="text;html=1;align=left;verticalAlign=middle;resizable=0;points=[];autosize=1;strokeColor=none;fillColor=none;" vertex="1" parent="1">
          <mxGeometry x="40" y="480" width="160" height="30" as="geometry" />
        </mxCell>
        <mxCell id="gdm9CZV6I5VWxYnbLnco-21" value="" style="endArrow=block;html=1;rounded=0;endFill=1;" edge="1" parent="1">
          <mxGeometry width="50" height="50" relative="1" as="geometry">
            <mxPoint x="40" y="680" as="sourcePoint" />
            <mxPoint x="200" y="680" as="targetPoint" />
          </mxGeometry>
        </mxCell>
        <mxCell id="gdm9CZV6I5VWxYnbLnco-22" value="" style="endArrow=block;html=1;rounded=0;endFill=1;" edge="1" parent="1">
          <mxGeometry width="50" height="50" relative="1" as="geometry">
            <mxPoint x="40" y="680" as="sourcePoint" />
            <mxPoint x="40" y="560" as="targetPoint" />
          </mxGeometry>
        </mxCell>
        <mxCell id="gdm9CZV6I5VWxYnbLnco-23" value="" style="curved=1;endArrow=classic;html=1;rounded=0;" edge="1" parent="1">
          <mxGeometry width="50" height="50" relative="1" as="geometry">
            <mxPoint x="50" y="670" as="sourcePoint" />
            <mxPoint x="190" y="590" as="targetPoint" />
            <Array as="points">
              <mxPoint x="70" y="650" />
              <mxPoint x="80" y="620" />
              <mxPoint x="130" y="590" />
            </Array>
          </mxGeometry>
        </mxCell>
        <mxCell id="gdm9CZV6I5VWxYnbLnco-25" value="" style="curved=1;endArrow=classic;html=1;rounded=0;" edge="1" parent="1">
          <mxGeometry width="50" height="50" relative="1" as="geometry">
            <mxPoint x="50" y="670" as="sourcePoint" />
            <mxPoint x="190" y="590" as="targetPoint" />
            <Array as="points">
              <mxPoint x="120" y="670" />
              <mxPoint x="150" y="660" />
              <mxPoint x="170" y="630" />
            </Array>
          </mxGeometry>
        </mxCell>
      </root>
    </mxGraphModel>
  </diagram>
</mxfile>
